<?xml version="1.0" encoding="UTF-8"?>
<svg xmlns="http://www.w3.org/2000/svg" version="1.1" viewBox="0 0 1366 768">
  <!-- Generator: Adobe Illustrator 30.0.0, SVG Export Plug-In . SVG Version: 2.1.1 Build 123)  -->
  <defs>
    <style>
      .st0 {
        stroke-width: .05px;
      }

      .st0, .st1 {
        fill: none;
        stroke: #000;
        stroke-miterlimit: 10;
      }

      .st1 {
        stroke-width: .25px;
      }

      .st2 {
        display: none;
      }
    </style>
  </defs>
  <g id="Layer_1">
    <g id="S_-_FREEWAY">
      <path class="st1" d="M278.35,363.01c-4.23-11.09-9.2-21.92-14.88-32.36-2.77-5.11-5.72-10.12-8.82-15.02-6.21-9.79-13.08-19.15-20.05-28.45-11.91-15.88-24.11-31.59-37.72-45.97-13.41-14.17-28.19-27.05-42.99-39.83-11.43-9.87-22.86-19.68-34.56-29.19-9.82-7.98-19.82-15.74-29.82-23.5-19.97-15.48-39.95-30.92-59.85-46.47C19.76,94.48,9.87,86.72,0,78.95"/>
      <path class="st1" d="M397.09,625.12c-2.27-7.29-4.61-14.56-7.08-21.78-7.86-23.04-16.99-45.62-25.58-68.4-10.28-27.26-19.78-54.8-29.94-82.09-10.62-28.53-21.94-56.77-33.31-85.06-7.09-17.65-14.2-35.31-23-52.15-7.76-14.85-16.84-29.06-26.97-42.43-14.19-18.74-30.43-35.83-47.19-52.34-19.32-19.04-39.32-37.33-60.08-54.72-21.94-18.39-44.72-35.78-67.19-53.53-9.48-7.49-18.92-15.05-28.34-22.62C32.25,76.99,16.09,63.96,0,50.85"/>
      <line class="st1" x1="375.13" y1="625.12" x2="397.09" y2="625.12"/>
      <path class="st1" d="M375.13,625.12c-.77-2.43-1.55-4.85-2.33-7.27-7.41-22.8-15.66-45.32-24.07-67.78-9.24-24.69-18.66-49.29-27.45-74.15-10.35-29.28-19.8-58.9-31.74-87.55-3.55-8.53-7.33-16.97-11.19-25.37"/>
      <line class="st1" y1="50.85" y2="78.95"/>
    </g>
    <g id="S_-_BDG_PADS">
      <line class="st1" x1="1224.01" y1="97.63" x2="1224.01"/>
      <line class="st1" x1="1205.09" y1="97.63" x2="1205.09"/>
      <line class="st1" x1="1209.87" y1="97.63" x2="1209.87"/>
      <line class="st1" x1="1158.12" y1="97.63" x2="1158.12"/>
      <line class="st1" x1="1153.33" y1="97.63" x2="1153.33"/>
      <line class="st1" x1="1105.61" y1="97.63" x2="1105.61"/>
      <line class="st1" x1="1100.83" y1="97.63" x2="1100.83"/>
      <line class="st1" x1="1209.87" y1="97.63" x2="1224.01" y2="97.63"/>
      <line class="st1" x1="1080.74" y1="107.19" x2="1224.01" y2="107.19"/>
      <line class="st1" x1="1224.01" y1="304.61" x2="1224.01" y2="107.19"/>
      <line class="st1" x1="1158.12" y1="97.63" x2="1205.09" y2="97.63"/>
      <line class="st1" x1="1105.61" y1="97.63" x2="1153.33" y2="97.63"/>
      <line class="st1" x1="1053.48" y1="97.63" x2="1100.83" y2="97.63"/>
      <line class="st1" x1="950.6" y1="97.63" x2="1048.7" y2="97.63"/>
      <line class="st1" x1="1080.74" y1="304.61" x2="1080.74" y2="107.19"/>
      <line class="st1" x1="1030.91" y1="107.19" x2="1073.09" y2="107.19"/>
      <line class="st1" x1="1073.09" y1="304.61" x2="1073.09" y2="107.19"/>
      <line class="st1" x1="1023.26" y1="304.61" x2="1023.26" y2="107.19"/>
      <line class="st1" x1="950.6" y1="107.19" x2="1023.26" y2="107.19"/>
      <line class="st1" x1="1030.91" y1="304.61" x2="1030.91" y2="107.19"/>
      <line class="st1" x1="950.6" x2="1048.7"/>
      <line class="st1" x1="1053.48" y1="97.63" x2="1053.48"/>
      <line class="st1" x1="1048.7" y1="97.63" x2="1048.7"/>
      <line class="st1" x1="950.6" y1="97.63" x2="950.6"/>
      <polyline class="st1" points="1023.26 304.61 950.6 304.61 950.6 107.19"/>
      <line class="st1" x1="1030.91" y1="304.61" x2="1073.09" y2="304.61"/>
      <line class="st1" x1="1080.74" y1="304.61" x2="1224.01" y2="304.61"/>
      <line class="st1" x1="1224" y1="520.05" x2="1224.01" y2="309.39"/>
      <line class="st1" x1="1185.51" y1="309.39" x2="1224.01" y2="309.39"/>
      <line class="st1" x1="1135.57" y1="309.39" x2="1177.85" y2="309.39"/>
      <line class="st1" x1="1080.74" y1="309.39" x2="1127.92" y2="309.39"/>
      <line class="st1" x1="1080.74" y1="520.04" x2="1080.74" y2="309.39"/>
      <line class="st1" x1="1030.91" y1="309.39" x2="1073.09" y2="309.39"/>
      <line class="st1" x1="1073.09" y1="400.53" x2="1073.09" y2="309.39"/>
      <line class="st1" x1="1030.91" y1="400.53" x2="1030.91" y2="309.39"/>
      <line class="st1" x1="1004.77" y1="309.39" x2="1023.26" y2="309.39"/>
      <line class="st1" x1="952.64" y1="309.39" x2="997.11" y2="309.39"/>
      <line class="st1" x1="1023.26" y1="400.53" x2="1023.26" y2="309.39"/>
      <line class="st1" x1="1030.91" y1="408.19" x2="1073.09" y2="408.19"/>
      <line class="st1" x1="1030.91" y1="400.53" x2="1073.09" y2="400.53"/>
      <line class="st1" x1="1073.09" y1="520.04" x2="1073.09" y2="408.19"/>
      <line class="st1" x1="1030.91" y1="520.04" x2="1030.91" y2="408.19"/>
      <line class="st1" x1="1004.77" y1="408.19" x2="1023.26" y2="408.19"/>
      <line class="st1" x1="1004.77" y1="400.53" x2="1023.26" y2="400.53"/>
      <line class="st1" x1="1023.26" y1="520.04" x2="1023.26" y2="408.19"/>
      <line class="st1" x1="1004.77" y1="400.53" x2="1004.77" y2="309.39"/>
      <line class="st1" x1="1004.77" y1="520.04" x2="1004.77" y2="408.19"/>
      <line class="st1" x1="1185.51" y1="520.05" x2="1224" y2="520.05"/>
      <line class="st1" x1="1135.57" y1="520.04" x2="1177.85" y2="520.05"/>
      <line class="st1" x1="1080.74" y1="520.04" x2="1127.92" y2="520.04"/>
      <line class="st1" x1="1030.91" y1="520.04" x2="1073.09" y2="520.04"/>
      <line class="st1" x1="1004.77" y1="520.04" x2="1023.26" y2="520.04"/>
      <line class="st1" x1="949.1" y1="520.04" x2="997.11" y2="520.04"/>
      <line class="st1" x1="997.11" y1="520.04" x2="997.11" y2="309.39"/>
      <line class="st1" x1="949.1" y1="529.6" x2="1224" y2="529.61"/>
      <line class="st1" x1="949.1" y1="520.04" x2="949.1" y2="319.67"/>
      <line class="st1" x1="949.1" y1="625.12" x2="949.1" y2="529.6"/>
      <line class="st1" x1="1185.51" y1="520.05" x2="1185.51" y2="309.39"/>
      <line class="st1" x1="1177.85" y1="520.05" x2="1177.85" y2="309.39"/>
      <line class="st1" x1="1127.92" y1="520.04" x2="1127.92" y2="309.39"/>
      <line class="st1" x1="1135.57" y1="520.04" x2="1135.57" y2="309.39"/>
      <polyline class="st1" points="949.1 625.12 1224 625.12 1224 529.61"/>
      <line class="st1" x1="949.1" y1="319.67" x2="952.64" y2="309.39"/>
      <line class="st1" x1="942.63" y1="309.08" x2="934.9" y2="331.53"/>
      <line class="st1" x1="1209.87" x2="1224.01"/>
      <line class="st1" x1="1158.12" x2="1205.09"/>
      <line class="st1" x1="1053.48" x2="1100.83"/>
      <line class="st1" x1="1105.61" x2="1153.33"/>
      <line class="st1" x1="690.8" y1="529.6" x2="690.8" y2="625.12"/>
      <rect class="st1" x="317.29" width="51.74" height="98.67"/>
      <polygon class="st1" points="522.54 108.25 374.12 108.24 373.99 150.19 522.54 150.51 522.54 108.25"/>
      <polygon class="st1" points="369.34 108.24 317.31 108.24 317.18 150.06 369.21 150.18 369.34 108.24"/>
      <rect class="st1" x="373.81" width="52.88" height="98.68"/>
      <rect class="st1" x="265.44" width="47.06" height="98.67"/>
      <rect class="st1" x="213.46" width="47.2" height="98.67"/>
      <path class="st1" d="M308.92,251.37c-3.74-.57-7.5-1.47-10.99-2.87-7.89-3.15-14.45-8.87-21.08-14.6-5.91-5.1-11.88-10.22-15.36-16.9-3.05-5.87-4.19-12.95-4.1-19.63l.57-42.66-35.18-.08v-4.78c29.87.06,59.74.13,89.61.19.04-13.94.09-27.88.13-41.82-80.44,0-160.87,0-241.31-.01,1.84,1.46,3.69,2.93,5.54,4.39,22.47,17.75,45.25,35.15,67.19,53.53,20.75,17.39,40.76,35.68,60.08,54.72,16.76,16.52,33,33.6,47.19,52.34,6.84,9.03,13.19,18.44,18.99,28.17,13.57,0,27.14,0,40.72-.01h1c.05-16.67.1-33.34.15-50.01h-3.16v.03Z"/>
      <polygon class="st1" points="380.78 301.52 386.74 301 394.8 299.27 411.18 294.31 416.14 293.07 422.38 292.22 427.53 292.03 456.14 292.06 482.01 292.1 489.21 292.11 522.54 291.63 522.54 251.37 373.67 251.37 373.52 301.54 380.78 301.52"/>
      <polygon class="st1" points="368.89 251.37 316.86 251.37 316.71 301.39 367.96 301.55 368.74 301.55 368.89 251.37"/>
      <polyline class="st1" points="522.54 625.12 522.54 529.59 362.43 529.59"/>
      <path class="st1" d="M0,50.85c16.09,13.1,32.25,26.14,48.43,39.14,3.6,2.89,7.2,5.78,10.8,8.67h149.45V0H0v50.85Z"/>
      <polygon class="st1" points="522.54 84 522.54 0 479.18 0 522.54 84"/>
      <polygon class="st1" points="469.62 0 520.55 98.68 431.47 98.68 431.47 0 469.62 0"/>
      <rect class="st1" x="845.27" y="406.57" width="89.5" height="55.32"/>
      <polygon class="st1" points="840.49 520.04 742.46 520.03 685.85 406.57 840.49 406.57 840.49 520.04"/>
      <rect class="st1" x="845.27" y="466.67" width="89.5" height="53.37"/>
      <path class="st1" d="M793.79,625.12c-6.76-12.11-13.52-24.22-20.28-36.33.35-.19.71-.37,1.06-.56-10.62-19.54-21.24-39.09-31.86-58.63h192.06v95.52H397.09c-2.27-7.29-4.61-14.56-7.08-21.78-7.86-23.04-16.99-45.62-25.58-68.4-10.28-27.26-19.78-54.8-29.94-82.09-10.62-28.53-21.94-56.77-33.31-85.06-5.69-14.17-11.4-28.35-17.98-42.1l56.24.03,13.32,1.02c3.6.57,7.2,1.14,10.79,1.72,2.61.58,5.23,1.17,7.84,1.75,3.31.92,6.62,1.84,9.93,2.76,5.08,1.43,10.16,2.86,15.24,4.28,3.62.7,7.25,1.39,10.87,2.09,2.77.28,5.54.57,8.31.85.54.05,1.07.11,1.61.16,18.71,0,37.43-.02,56.14-.02,11.99.12,23.98.24,35.97.35,4.36.02,8.71.05,13.07.07v179.27h-163.65"/>
      <polygon class="st1" points="934.78 341.09 934.78 400.19 845.27 400.19 845.27 340.77 934.78 341.09"/>
      <polygon class="st1" points="684.95 400.19 650.15 340.06 840.49 340.75 840.49 400.19 684.95 400.19"/>
      <rect class="st1" x="910.69" width="31.95" height="97.63"/>
      <rect class="st1" x="870.92" width="34.98" height="97.63"/>
      <path class="st1" d="M864.3,234.82c2.98,3.94,9,3.6,11.53-.63,2.53-4.24-.03-9.69-4.91-10.45v-116.54h71.71v201.89c-2.58,7.48-5.16,14.96-7.73,22.45-58.54-.21-117.08-.42-175.62-.63v-96.07h105.02v-.02Z"/>
      <path class="st1" d="M308.92,246.58h3.18c.1-30.58.19-61.17.29-91.75-16.74-.04-33.48-.07-50.22-.11v44.08c0,.46.02.92.04,1.38.04.92.11,1.84.2,2.75.05.46.1.91.16,1.36s.13.9.21,1.35c.1.6.22,1.2.35,1.79.1.44.2.87.31,1.3.11.43.23.85.36,1.27.13.42.26.83.41,1.24.14.41.29.81.45,1.21.16.39.32.78.5,1.17.17.38.35.75.55,1.12.22.42.44.83.68,1.23.24.41.5.82.76,1.21.27.4.55.8.84,1.19.29.4.6.79.91,1.18.32.39.64.78.97,1.16.34.39.68.77,1.03,1.15.32.35.65.69.98,1.03.37.38.75.76,1.14,1.13.39.38.79.76,1.18,1.13.55.51,1.11,1.02,1.67,1.52.85.76,1.71,1.51,2.57,2.26.44.38.88.76,1.33,1.15.48.42.97.83,1.45,1.25.97.84,1.95,1.68,2.93,2.5.84.71,1.69,1.41,2.55,2.1.48.39.96.77,1.45,1.14.48.37.96.74,1.45,1.1.48.36.97.7,1.46,1.05.39.27.79.54,1.18.81.48.32.97.64,1.47.94.49.3.98.6,1.48.88.49.28.99.55,1.5.81.5.26,1,.5,1.51.73.5.23,1.01.45,1.53.65.46.18.92.36,1.39.52.47.17.95.32,1.43.47.49.15.98.29,1.47.42.33.09.67.17,1.01.26.5.12,1.01.24,1.52.34.51.11,1.02.21,1.54.3.52.09,1.03.18,1.55.26"/>
      <path class="st1" d="M432.71,297.67c-8.57.59-17.26,1.77-25.32,4.75-5.03,1.86-9.81,4.43-14.93,5.91-4.44,1.28-9.14,1.75-13.84,1.87h-103.34c.42.76.83,1.52,1.25,2.29h246.02v-14.82h-89.84Z"/>
      <path class="st1" d="M361.36,320.76c8.24.38,16.61,1.51,24.4,4.23,5.46,1.9,10.64,4.59,16.06,6.61,4.22,1.58,8.59,2.76,12.97,3.85h107.75v-15.63h-161.18v.94Z"/>
      <rect class="st1" x="817.68" width="48.46" height="97.63"/>
      <rect class="st1" x="817.68" y="107.19" width="48.46" height="118.06"/>
      <rect class="st1" x="742.21" width="70.69" height="97.63"/>
      <rect class="st1" x="765.51" y="107.19" width="47.39" height="118.06"/>
      <rect class="st1" x="713.4" width="24.02" height="97.63"/>
      <rect class="st1" x="660.47" width="48.15" height="97.63"/>
      <rect class="st1" x="713.4" y="107.19" width="47.32" height="118.06"/>
      <polygon class="st1" points="655.69 225.26 655.69 107.19 532.14 107.19 578.67 195.32 577.71 195.85 591.26 222.96 592.07 222.54 593.44 225.26 655.69 225.26"/>
      <rect class="st1" x="660.47" y="107.19" width="48.15" height="118.06"/>
      <rect class="st1" x="532.1" width="46.6" height="43.83"/>
      <polygon class="st1" points="630.55 43.83 630.55 48.62 583.49 48.62 583.49 97.63 655.69 97.63 655.69 0 583.49 0 583.49 43.83 630.55 43.83"/>
      <rect class="st1" x="532.1" y="48.62" width="46.6" height="49.01"/>
      <polygon class="st1" points="596.88 234.82 621.51 282.39 619.13 283.62 647.58 330.49 754.51 330.88 754.51 234.82 596.88 234.82"/>
      <polygon class="st1" points="610.46 398.62 610.44 341.44 641.38 341.44 675.96 401.19 644.06 401.19 640.71 398.62 610.46 398.62"/>
      <polyline class="st1" points="690.8 529.6 733.64 529.6 765.49 588.23 764.43 588.79 784.71 625.12"/>
      <polyline class="st1" points="610.55 625.12 610.51 529.59 681.24 529.6 681.24 625.12"/>
      <polygon class="st1" points="610.48 450.95 610.48 458.98 610.51 520.03 728.2 520.03 672.88 409.16 644.06 409.16 640.71 406.59 610.46 406.59 610.48 450.95"/>
      <polyline class="st1" points="532.1 625.12 532.1 529.59 600.95 529.59 600.98 625.12"/>
      <polygon class="st1" points="600.92 469.52 532.1 469.52 532.1 520.03 600.94 520.03 600.92 469.52"/>
      <polygon class="st1" points="600.92 458.98 600.92 459.95 532.1 459.95 532.1 406.59 600.9 406.59 600.91 450.95 600.92 458.98"/>
      <polygon class="st1" points="532.1 398.62 532.1 341.44 600.87 341.44 600.89 398.62 532.1 398.62"/>
      <polygon class="st1" points="532.1 331.88 532.1 234.82 579.66 234.82 635.84 331.88 532.1 331.88"/>
      <polygon class="st1" points="532.1 125.24 532.1 225.26 583.88 225.26 582.5 222.54 581.7 222.96 568.15 195.85 569.1 195.32 532.1 125.24"/>
      <polygon class="st1" points="368.9 246.58 316.87 246.58 317.17 154.85 369.19 154.96 368.9 246.58"/>
      <polygon class="st1" points="522.54 246.58 373.68 246.58 373.98 154.97 522.54 155.29 522.54 246.58"/>
    </g>
    <g id="S_-_EMPTY_LOTS">
      <rect class="st1" x="631.64" y="130.52" width="21.5" height="21.34"/>
      <rect class="st1" x="632.14" y="34.72" width="21.64" height="23.02"/>
      <rect class="st1" x="534.2" y="263.8" width="29.73" height="19.46"/>
      <rect class="st1" x="691.18" y="108.44" width="15.34" height="18.37"/>
      <rect class="st1" x="661.61" y="191.65" width="22.26" height="31.39"/>
      <rect class="st1" x="487.2" y="110.65" width="16.33" height="36.48"/>
      <polygon class="st1" points="612.81 347.61 612.81 396.51 629.54 396.51 647.38 396.51 647.38 365.36 638.68 347.61 612.81 347.61"/>
    </g>
    <g id="S_-_SCHOOLS">
      <polygon class="st1" points="554.49 472.38 570.01 472.38 570.01 481.42 566.85 481.42 566.85 477.68 554.49 477.68 554.49 472.38"/>
      <rect class="st1" x="571.12" y="473.63" width="4.89" height="8.03"/>
      <rect class="st1" x="624.99" y="435.36" width="22.7" height="13.4"/>
      <rect class="st1" x="535.71" y="171.02" width="18.26" height="12.1"/>
      <rect class="st1" x="619.55" y="440.31" width="5.44" height="8.44"/>
      <polygon class="st1" points="536.64 470.26 553.6 470.26 553.6 477.1 545.77 477.1 545.77 475.94 542.44 475.94 542.44 486 547.11 486 547.11 487.67 546.07 487.67 546.07 491.27 536.64 491.27 536.64 486.86 535.74 486.86 535.74 482.1 536.64 482.1 536.64 479.75 535.39 479.75 535.39 474.87 536.64 474.87 536.64 470.26"/>
      <rect class="st1" x="559.9" y="486.13" width="17.3" height="4.9"/>
      <rect class="st1" x="552.07" y="487.45" width="6.64" height="3.57"/>
      <polygon class="st1" points="559.19 447.91 538 447.91 538 453.7 549.23 453.7 549.23 456.95 553.84 456.95 553.84 455.55 558.61 455.55 558.61 453.7 559.19 453.7 559.19 452.53 561.38 452.53 561.38 447.01 559.19 447.01 559.19 447.91"/>
    </g>
    <g>
      <polygon class="st1" points="774.8 621.9 763.15 621.9 760.95 617.16 770.53 612.71 774.8 621.9"/>
      <polygon class="st1" points="1080.56 538.56 1080.56 533.65 1068.88 533.65 1068.88 538.56 1052.57 538.56 1052.57 575.35 1080.56 575.35 1080.56 538.56"/>
    </g>
  </g>
  <g id="C-GRCRY_PATHS">
    <line class="st1" x1="639.98" y1="330.46" x2="652.08" y2="351.35"/>
    <polyline class="st1" points="1074.9 533.65 1074.9 524.83 942.12 524.82 942.12 336.31 757.06 336.01 757.07 230.04 658.26 230.04 658.26 46.23 653.96 46.23"/>
    <polyline class="st1" points="863.49 56.98 868.71 56.98 868.71 102.41 1077.09 102.41 1077.09 524.83 1074.9 524.83 1074.9 533.65"/>
    <polyline class="st1" points="1074.9 533.65 1074.9 524.83 942.12 524.82 942.12 336.31 757.06 336.01 757.07 230.04 658.26 230.04 658.26 141.19 653.77 141.19"/>
    <polyline class="st1" points="1074.9 533.65 1074.9 524.83 942.12 524.82 942.12 336.31 757.06 336.01 757.07 230.04 711.19 230.04 711.19 117.62 706.7 117.62"/>
    <polyline class="st1" points="1074.9 533.65 1074.9 524.83 942.12 524.82 942.12 336.31 757.06 336.01 757.07 230.04 672.92 230.04 672.92 223.04"/>
    <polyline class="st1" points="1074.9 533.65 1074.9 524.83 735.51 524.82 735.51 520.03 680.35 409.48 680.35 400.19 646.35 341.46 643.57 336.66 636.02 336.66 527.5 336.66 527.5 273.53 534.38 273.53"/>
    <polyline class="st1" points="1074.9 533.65 1074.9 524.83 742.89 524.82 735.51 524.82 735.51 520.03 680.35 409.48 680.35 400.19 652.08 351.35 643.21 356.49"/>
    <line class="st1" x1="588.84" y1="225.26" x2="524.54" y2="103.47"/>
    <polyline class="st1" points="1074.9 533.65 1074.9 524.83 942.12 524.82 942.12 336.31 643.19 336.01 588.84 242.11 588.84 225.26 527.06 108.25 524.54 103.47 429.26 103.46 429.26 43.49 423.74 43.49"/>
    <polyline class="st1" points="1071.84 357.68 1077.09 357.68 1077.09 524.83 1074.9 524.83 1074.9 533.65"/>
  </g>
  <g id="S_-_GROCERY_STORES" class="st2">
    <polyline class="st1" points="1074.72 533.65 1074.72 524.83 742.71 524.82 735.33 524.82 735.33 520.03 680.17 409.48 680.17 400.19 651.9 351.35 643.03 356.49"/>
  </g>
  <g id="C-SCHOOL-PATHS" class="st2">
    <polyline class="st0" points="495.54 147.13 495.54 152.9 527.5 152.9 527.5 177.07 535.88 177.07"/>
    <polyline class="st0" points="672.92 223.04 672.92 230.04 527.5 230.04 527.5 177.07 535.88 177.07"/>
    <polyline class="st0" points="612.99 393.84 605.88 393.84 605.88 444.54 619.73 444.54"/>
    <polyline class="st0" points="653.96 46.23 658.26 46.23 658.26 102.41 527.5 102.41 527.5 177.07 535.88 177.07"/>
    <polyline class="st0" points="423.74 43.49 429.26 43.49 429.26 103.46 527.5 103.46 527.5 177.07 535.88 177.07"/>
    <polyline class="st0" points="863.49 56.98 868.71 56.98 868.71 102.41 527.5 102.41 527.5 177.07 535.88 177.07"/>
    <polyline class="st0" points="1071.84 357.68 1077.09 357.68 1077.09 307 946.8 307 946.8 199.86 935.9 199.86"/>
    <polyline class="st0" points="535.88 177.07 527.5 177.07 527.5 273.53 534.38 273.53"/>
  </g>
  <g id="S_-_SCHOOLS1" data-name="S_-_SCHOOLS" class="st2">
    <path class="st0" d="M888.32,161.84c14.8,17.44,15.85,42.72,2.54,61.33"/>
    <rect class="st0" x="917.33" y="233.64" width="18.66" height="4.92"/>
    <rect class="st0" x="920.36" y="189.28" width="15.54" height="21.16"/>
    <rect class="st0" x="898.99" y="163.72" width="39.65" height="12.08"/>
    <polyline class="st0" points="888.32 161.84 876.69 165.33 881.08 182.85 883.52 182.85 883.52 206.52 874.96 206.52 874.96 223.17 890.86 223.17"/>
  </g>
  <g id="S_-_EMPTY_LOTS1" data-name="S_-_EMPTY_LOTS" class="st2">
    <rect class="st0" x="487.37" y="110.65" width="16.33" height="36.48"/>
    <rect class="st0" x="661.79" y="191.65" width="22.26" height="31.39"/>
    <rect class="st0" x="534.38" y="263.8" width="29.73" height="19.46"/>
    <polygon class="st0" points="612.99 347.61 612.99 396.52 629.72 396.52 647.56 396.52 647.56 365.36 638.85 347.61 612.99 347.61"/>
    <rect class="st0" x="691.36" y="108.44" width="15.34" height="18.37"/>
    <rect class="st0" x="632.32" y="34.72" width="21.64" height="23.02"/>
    <rect class="st0" x="1051.29" y="351.17" width="20.56" height="13.02"/>
    <rect class="st0" x="401.06" y="38.04" width="22.69" height="10.89"/>
    <rect class="st0" x="841.78" y="48.07" width="21.71" height="17.83"/>
    <rect class="st0" x="631.82" y="130.52" width="21.5" height="21.34"/>
  </g>
  <g id="S_-_CIRC_x5F_RTES" class="st2">
    <line class="st0" x1="619.73" y1="444.54" x2="605.88" y2="444.54"/>
  </g>
</svg>